<?xml version="1.0" encoding="utf-8"?>
<!-- Generator: Adobe Illustrator 17.1.0, SVG Export Plug-In . SVG Version: 6.00 Build 0)  -->
<!DOCTYPE svg PUBLIC "-//W3C//DTD SVG 1.1//EN" "http://www.w3.org/Graphics/SVG/1.1/DTD/svg11.dtd">
<svg version="1.1" id="Layer_1" xmlns="http://www.w3.org/2000/svg" xmlns:xlink="http://www.w3.org/1999/xlink" x="0px" y="0px"
	 width="150px" height="120px" viewBox="0 0 150 120" enable-background="new 0 0 150 120" xml:space="preserve">
<path fill="#772234" d="M75.013,5.24c-23.076-0.08-42.146,18.509-42.359,41.897C32.44,70.932,51.427,89.494,74.141,89.919
	c23.824,0.443,43.125-18.583,43.204-42.148C117.428,23.711,97.923,5.139,75.013,5.24z M75.011,84.032
	c-20.259-0.01-36.673-16.566-36.463-36.845c0.204-19.78,16.296-36.115,36.535-36.068c20.177,0.049,36.319,16.389,36.362,36.3
	C111.488,67.684,95.16,84.034,75.011,84.032z M98.199,37.48c-0.398-0.021-0.808,0.131-1.133-0.288
	c-0.189-0.244-0.999-0.177-1.247,0.021c-0.254,0.206-0.492,0.447-0.775,0.605c-0.504,0.28-1.029,0.523-1.556,0.753
	c-0.717,0.311-1.442,0.597-2.246,0.603c-0.678,0.008-1.281-0.074-1.76-0.654c-0.17-0.206-0.562-0.241-0.86-0.315
	c-0.072-0.02-0.222,0.076-0.263,0.159c-0.163,0.323-0.261,0.681-0.446,0.988c-0.098,0.165-0.308,0.315-0.496,0.364
	c-0.347,0.092-0.677,0.347-1.071,0.187c-0.019-0.008-0.054,0.023-0.082,0.041c-0.689,0.451-1.873-0.106-1.937-0.925
	c-0.03-0.368-0.045-0.753,0.035-1.107c0.121-0.537,0.431-1.01,0.489-1.586c0.044-0.453,0.29-0.884,0.37-1.339
	c0.122-0.697,0.163-1.409,0.257-2.111c0.083-0.631,0.013-0.724-0.626-0.724c-0.064,0-0.131,0.03-0.188,0.016
	c-0.479-0.098-1.063,0.148-1.398-0.415c-0.073-0.12-0.082-0.277-0.153-0.398c-0.41-0.654-0.396-1.409-0.456-2.125
	c-0.042-0.472,0.123-0.965-0.195-1.391c-0.081-0.11-0.24-0.222-0.364-0.222c-0.755,0.018-1.533,0.189-2.256,0.057
	c-0.451-0.084-0.865-0.57-1.211-0.951c-0.292-0.323-0.462-0.758-0.685-1.144c-0.04-0.069-0.076-0.142-0.104-0.216
	c-0.127-0.353-0.239-0.712-0.381-1.061c-0.108-0.273-0.279-0.52-0.366-0.798c-0.172-0.567-0.293-1.153-0.46-1.721
	c-0.187-0.632-0.402-1.256-0.601-1.887c-0.087-0.274-0.237-0.512-0.55-0.453c-0.176,0.035-0.332,0.21-0.484,0.335
	c-0.052,0.04-0.062,0.13-0.104,0.188c-0.192,0.272-0.41,0.527-0.575,0.813c-0.181,0.313-0.327,0.652-0.467,0.985
	c-0.154,0.367-0.573,0.617-0.471,1.094c0.009,0.037-0.044,0.09-0.073,0.132c-0.142,0.197-0.323,0.378-0.424,0.596
	c-0.177,0.397-0.293,0.823-0.467,1.224c-0.076,0.177-0.252,0.306-0.362,0.467c-0.322,0.472-0.543,1.068-0.973,1.391
	c-0.515,0.387-1.173,0.607-1.871,0.65c-0.303,0.017-0.697,0.175-0.859,0.405c-0.192,0.269-0.222,0.684-0.246,1.041
	c-0.048,0.703-0.01,1.409-0.072,2.107c-0.042,0.475-0.025,1.025-0.602,1.254c-0.629,0.249-1.166-0.047-1.669-0.356
	c-0.307-0.191-0.618-0.392-0.928-0.183c-0.194,0.131-0.355,0.44-0.374,0.681c-0.07,0.913-0.011,1.827,0.226,2.722
	c0.016,0.058,0.076,0.101,0.1,0.156c0.067,0.139,0.143,0.272,0.176,0.417c0.063,0.272,0.109,0.551,0.143,0.829
	c0.074,0.59,0.137,1.182,0.2,1.742c-0.022,0.31,0.01,0.6-0.075,0.858c-0.092,0.272-0.237,0.607-0.462,0.733
	c-0.654,0.368-1.368,0.551-2.089,0.132c-0.271-0.157-0.53-0.331-0.779-0.523c-0.333-0.253-0.672-0.578-1.089-0.235
	c-0.38,0.311-0.799,0.202-1.207,0.249c-0.662,0.074-1.199-0.314-1.786-0.506c-0.186-0.062-0.38-0.133-0.573-0.153
	c-0.644-0.074-1.294-0.196-1.934-0.159c-0.623,0.031-1.193,0.348-1.849,0.399c-1.078,0.084-1.929-0.428-2.843-0.786
	c-0.524-0.208-1.01-0.52-1.509-0.792c-0.197-0.109-0.369-0.274-0.577-0.352c-0.447-0.169-0.905-0.315-1.366-0.444
	c-0.152-0.043-0.455-0.047-0.478,0.012c-0.086,0.216-0.142,0.482-0.092,0.703c0.064,0.276,0.25,0.525,0.375,0.79
	c0.097,0.2,0.156,0.419,0.271,0.607c0.557,0.926,1.136,1.836,1.684,2.769c0.138,0.234,0.122,0.582,0.292,0.767
	c0.393,0.419,0.503,0.911,0.553,1.442c0.045,0.457,0.14,0.923,0.116,1.378c-0.018,0.353-0.175,0.698-0.293,1.043
	c-0.079,0.214-0.163,0.447-0.309,0.619c-0.293,0.349-0.265,1.186,0.083,1.458c0.888,0.692,1.872,1.288,2.285,2.44
	c0.16,0.442,0.506,0.855,0.274,1.347c-0.2,0.421-0.233,0.957-0.78,1.185c-0.219,0.09-0.361,0.351-0.553,0.518
	c-0.106,0.092-0.239,0.185-0.372,0.21c-0.95,0.179-1.888,0.121-2.831-0.08c-0.355-0.077-0.728-0.067-0.956,0.354
	c-0.175,0.327-0.418,0.621-0.635,0.925c-0.061,0.086-0.134,0.177-0.225,0.22c-0.493,0.234-0.986,0.467-1.492,0.674
	c-0.262,0.107-0.312,0.259-0.147,0.455c0.216,0.255,0.453,0.5,0.71,0.716c0.543,0.458,1.109,0.895,1.658,1.346
	c0.291,0.237,0.548,0.517,0.852,0.735c0.367,0.267,0.629,0.594,0.822,1c0.067,0.14,0.215,0.28,0.361,0.337
	c0.471,0.178,0.963,0.307,1.436,0.486c1.011,0.376,2.093,0.609,2.955,1.323c0.086,0.07,0.17,0.153,0.225,0.249
	c0.155,0.266,0.271,0.554,0.442,0.809c0.329,0.48,0.355,1.379,0.024,1.806c-0.199,0.257-0.405,0.508-0.598,0.767
	c-0.209,0.279-0.139,0.557,0.107,0.68c0.836,0.416,1.823,0.29,2.647,0.772c0.197,0.113,0.521,0.027,0.784,0.004
	c0.229-0.015,0.453-0.093,0.685-0.109c0.358-0.026,0.72,0.006,1.073-0.047c0.411-0.06,0.822-0.161,1.221-0.288
	c0.265-0.084,0.629-0.177,0.734-0.378c0.28-0.543,0.706-0.608,1.228-0.637c0.291-0.015,0.578-0.163,0.855-0.278
	c0.204-0.086,0.384-0.225,0.584-0.325c0.623-0.306,1.387-0.29,1.907-0.841c0.058-0.062,0.195-0.078,0.293-0.074
	c0.561,0.025,1.12,0.086,1.678,0.074c0.174-0.004,0.385-0.169,0.505-0.319c0.391-0.479,0.731-0.998,1.125-1.472
	c0.281-0.337,0.589-0.664,0.938-0.925c0.409-0.306,0.8-0.676,1.391-0.643c0.582,0.035,1.15-0.006,1.744,0.111
	c0.569,0.111,1.047,0.29,1.391,0.7c0.276,0.335,0.47,0.757,0.62,1.172c0.177,0.48,0.379,0.99,0.376,1.489
	c-0.005,1.386-0.106,2.771-0.183,4.159c-0.03,0.523-0.073,1.052-0.157,1.57c-0.091,0.529-0.238,1.045-0.364,1.566
	c-0.025,0.104-0.069,0.196-0.103,0.296c-0.086,0.251-0.186,0.498-0.251,0.751c-0.079,0.335-0.055,0.718-0.21,1.004
	c-0.218,0.401-0.263,0.95,0.034,1.325c0.304,0.385,0.728,0.48,1.195,0.237c0.225-0.116,0.41-0.308,0.631-0.436
	c0.223-0.127,0.467-0.216,0.701-0.325c0.159-0.074,0.31-0.17,0.472-0.231c0.664-0.241,0.824-0.723,0.45-1.325
	c-0.072-0.114-0.097-0.272-0.108-0.41c-0.057-0.71,0.218-1.429-0.075-2.133c-0.042-0.104-0.027-0.232-0.022-0.349
	c0.021-0.623,0.075-1.249,0.065-1.872c-0.01-0.66-0.122-1.323-0.113-1.983c0.02-1.268,0.099-2.538,0.148-3.808
	c0.023-0.514,0.318-0.851,0.744-1.057c0.899-0.431,1.743-0.156,2.564,0.267c0.233,0.117,0.482,0.204,0.701,0.343
	c0.378,0.244,0.826,0.341,1.083,0.808c0.287,0.524,0.608,1.059,1.214,1.339c0.412,0.192,0.763,0.505,1.163,0.731
	c0.242,0.137,0.514,0.259,0.785,0.294c0.96,0.134,1.929,0.197,2.884,0.351c0.506,0.076,1.005,0.255,1.483,0.445
	c0.327,0.132,0.597,0.412,0.923,0.541c0.497,0.193,0.9,0.621,1.508,0.555c0.33-0.039,0.675,0.045,1.011,0.055
	c0.554,0.017,1.11,0.046,1.664,0.023c0.666-0.027,1.333-0.121,2.002-0.159c0.452-0.025,0.91,0.041,1.315-0.247
	c0.242-0.171,0.496-0.327,0.756-0.471c0.354-0.2,0.534-0.486,0.54-0.901c0.014-0.698,0.039-1.396,0.069-2.094
	c0.02-0.453,0.101-0.88,0.478-1.199c0.384-0.323,0.746-0.67,1.129-0.994c0.52-0.44,1.023-0.909,1.583-1.292
	c0.717-0.488,1.494-0.889,2.228-1.358c0.565-0.356,1.119-0.797,1.306-1.44c0.118-0.405,0.027-0.944-0.16-1.331
	c-0.113-0.234-0.592-0.294-0.909-0.427c-0.179-0.076-0.398-0.102-0.543-0.218c-0.434-0.348-0.843-0.731-1.26-1.103
	c-0.734-0.652-1.003-0.658-1.709-0.169c-0.231,0.159-0.562,0.271-0.835,0.253c-0.339-0.021-0.675-0.182-0.996-0.321
	c-0.958-0.41-1.798-1.002-2.045-2.054c-0.132-0.561-0.037-1.221,0.108-1.797c0.146-0.588,0.523-1.115,0.715-1.695
	c0.228-0.69,0.822-0.956,1.344-1.309c0.217-0.147,0.464-0.251,0.691-0.386c0.263-0.16,0.323-0.378,0.149-0.641
	c-0.192-0.294-0.406-0.578-0.578-0.884c-0.361-0.639-0.669-1.296-0.313-2.05c0.159-0.336,0.296-0.685,0.453-1.019
	c0.149-0.325,0.304-0.648,0.483-0.956c0.251-0.437,0.54-0.851,0.782-1.288c0.105-0.19,0.09-0.451,0.207-0.627
	c0.432-0.648,0.9-1.268,1.351-1.905c0.169-0.237,0.122-0.819-0.073-0.825c-0.307-0.004-0.629,0.062-0.922,0.165
	c-0.318,0.119-0.59,0.388-0.913,0.461C100.072,37.292,99.155,37.533,98.199,37.48z M19.2,105.849
	c-0.306-0.26-0.665-0.453-1.074-0.579c-0.409-0.126-0.842-0.188-1.297-0.188h-4.256v9.765h1.94v-3.46h2.148
	c0.502,0,0.968-0.061,1.402-0.181c0.432-0.121,0.807-0.312,1.123-0.572c0.316-0.26,0.562-0.593,0.739-0.997
	c0.176-0.405,0.265-0.891,0.265-1.458c0-0.52-0.089-0.974-0.264-1.36C19.749,106.432,19.506,106.109,19.2,105.849z M16.786,109.476
	h-2.274v-2.483h2.246c0.437,0,0.783,0.099,1.039,0.296c0.256,0.198,0.385,0.509,0.385,0.932
	C18.182,109.058,17.716,109.476,16.786,109.476z M41.165,109.985c0.312-0.469,0.467-1.072,0.467-1.806
	c0-0.52-0.089-0.974-0.265-1.36c-0.177-0.387-0.419-0.709-0.725-0.969c-0.307-0.26-0.666-0.453-1.074-0.579
	c-0.41-0.126-0.842-0.188-1.298-0.188h-4.534v9.765h1.939v-3.515h1.967l1.744,3.515h2.247l-1.869-3.794
	C40.386,110.81,40.853,110.454,41.165,109.985z M38.228,109.49h-2.553v-2.497h2.553c0.437,0,0.779,0.095,1.025,0.284
	c0.246,0.19,0.37,0.507,0.37,0.951C39.623,109.069,39.158,109.49,38.228,109.49z M137.135,110.585
	c-0.196-0.344-0.449-0.627-0.761-0.85c-0.312-0.223-0.66-0.398-1.046-0.522c-0.387-0.126-0.774-0.235-1.165-0.328
	c-0.391-0.093-0.711-0.176-0.963-0.25c-0.251-0.075-0.452-0.153-0.601-0.237c-0.148-0.084-0.252-0.179-0.313-0.286
	c-0.061-0.106-0.091-0.238-0.091-0.397c0-0.111,0.022-0.217,0.069-0.32c0.047-0.102,0.124-0.194,0.237-0.278
	c0.113-0.084,0.256-0.151,0.432-0.202c0.177-0.051,0.396-0.077,0.656-0.077c0.446,0,0.848,0.086,1.207,0.258
	c0.359,0.172,0.697,0.42,1.012,0.746l1.409-1.37c-0.465-0.487-0.985-0.867-1.556-1.138c-0.572-0.271-1.239-0.408-2.002-0.408
	c-0.483,0-0.937,0.065-1.36,0.195c-0.424,0.131-0.793,0.319-1.109,0.565c-0.316,0.247-0.564,0.547-0.746,0.9
	c-0.18,0.354-0.271,0.753-0.271,1.2c0,0.484,0.075,0.889,0.223,1.214c0.149,0.326,0.358,0.596,0.628,0.809
	c0.27,0.214,0.594,0.391,0.97,0.53c0.377,0.14,0.788,0.26,1.234,0.363c0.456,0.103,0.828,0.2,1.116,0.293
	c0.288,0.093,0.51,0.19,0.663,0.293c0.153,0.103,0.258,0.212,0.314,0.328c0.056,0.117,0.084,0.253,0.084,0.411
	c0,0.373-0.138,0.642-0.411,0.809c-0.274,0.167-0.705,0.251-1.29,0.251c-0.475,0-0.924-0.086-1.347-0.258
	c-0.424-0.172-0.806-0.458-1.15-0.858l-1.409,1.256c0.372,0.549,0.892,0.981,1.561,1.297c0.671,0.317,1.414,0.474,2.232,0.474
	c0.669,0,1.244-0.074,1.723-0.222c0.478-0.148,0.876-0.36,1.192-0.634c0.316-0.273,0.549-0.601,0.698-0.981
	c0.149-0.381,0.224-0.803,0.224-1.267C137.426,111.366,137.328,110.929,137.135,110.585z M52.581,105.081h-2.356l-2.734,3.334
	c-0.131,0.157-0.275,0.335-0.434,0.53c-0.157,0.195-0.27,0.349-0.335,0.46c0-0.074,0.003-0.181,0.007-0.321
	c0.005-0.14,0.01-0.284,0.015-0.432c0.004-0.148,0.007-0.295,0.007-0.439v-3.132h-1.939v9.765h1.939v-2.874l1.562-1.841l2.65,4.715
	h2.345l-3.585-6.389L52.581,105.081z M25.198,105.081l-3.739,9.765h2.093l0.768-2.176h3.571l0.767,2.176h2.147l-3.712-9.765H25.198z
	 M24.989,110.815l0.628-1.772c0.102-0.288,0.197-0.567,0.286-0.837c0.088-0.269,0.156-0.497,0.202-0.684
	c0.046,0.186,0.114,0.413,0.201,0.684c0.089,0.27,0.183,0.549,0.286,0.837l0.628,1.772H24.989z M122.22,110.578h2.803v-1.911h-2.803
	v-1.674h4.827v-1.911h-6.766v9.765h6.975v-1.911h-5.036L122.22,110.578L122.22,110.578z M87.248,106.993h2.804v7.854h1.938v-7.854
	h2.805v-1.911h-7.547V106.993z M103.707,110.564L103.707,110.564c0,0.791-0.181,1.409-0.54,1.855
	c-0.361,0.446-0.855,0.67-1.482,0.67c-0.627,0-1.12-0.227-1.475-0.684c-0.356-0.455-0.534-1.079-0.534-1.869v-5.454h-1.938v5.482
	c0,0.716,0.094,1.348,0.285,1.897c0.191,0.549,0.458,1.011,0.803,1.388c0.344,0.377,0.76,0.663,1.248,0.858s1.025,0.293,1.611,0.293
	c1.246,0,2.218-0.388,2.916-1.165c0.698-0.776,1.045-1.876,1.044-3.299v-5.454h-1.939L103.707,110.564L103.707,110.564z
	 M67.76,105.849c-0.307-0.26-0.666-0.453-1.074-0.579c-0.41-0.126-0.842-0.188-1.297-0.188h-4.256v9.765h1.939v-3.46h2.148
	c0.502,0,0.968-0.061,1.401-0.181c0.434-0.121,0.807-0.312,1.124-0.572c0.315-0.26,0.562-0.593,0.738-0.997
	c0.177-0.405,0.266-0.891,0.266-1.458c0-0.52-0.089-0.974-0.264-1.36C68.31,106.432,68.067,106.109,67.76,105.849z M65.346,109.476
	h-2.274v-2.483h2.245c0.437,0,0.783,0.099,1.039,0.296c0.256,0.198,0.384,0.509,0.384,0.932
	C66.74,109.058,66.276,109.476,65.346,109.476z M116.635,109.985c0.312-0.469,0.467-1.072,0.467-1.806
	c0-0.52-0.089-0.974-0.265-1.36c-0.177-0.387-0.419-0.709-0.725-0.969c-0.307-0.26-0.666-0.453-1.074-0.579
	c-0.41-0.126-0.842-0.188-1.298-0.188h-4.534v9.765h1.939v-3.515h1.967l1.744,3.515h2.247l-1.869-3.794
	C115.856,110.81,116.323,110.454,116.635,109.985z M113.697,109.49h-2.553v-2.497h2.553c0.437,0,0.779,0.095,1.025,0.284
	c0.246,0.19,0.37,0.507,0.37,0.951C115.092,109.069,114.627,109.49,113.697,109.49z M71.875,114.846h1.938v-9.765h-1.938V114.846z
	 M79.687,107.739c0.195-0.274,0.437-0.488,0.725-0.642c0.288-0.153,0.614-0.23,0.977-0.23c0.446,0,0.811,0.093,1.095,0.279
	c0.283,0.186,0.513,0.446,0.69,0.781l1.812-0.837c-0.157-0.316-0.346-0.607-0.564-0.872c-0.219-0.265-0.475-0.493-0.768-0.684
	c-0.293-0.19-0.626-0.34-0.997-0.446c-0.372-0.107-0.786-0.16-1.242-0.16c-0.642,0-1.228,0.123-1.758,0.37
	c-0.53,0.246-0.985,0.59-1.367,1.032c-0.382,0.443-0.68,0.971-0.893,1.59c-0.214,0.619-0.321,1.299-0.321,2.044
	c0,0.772,0.103,1.467,0.307,2.085c0.204,0.619,0.495,1.146,0.872,1.583c0.377,0.437,0.826,0.774,1.347,1.011
	c0.52,0.237,1.101,0.356,1.744,0.356c0.892,0,1.633-0.193,2.224-0.579s1.054-0.928,1.389-1.625l-1.646-0.977
	c-0.26,0.437-0.532,0.753-0.816,0.949c-0.284,0.195-0.649,0.293-1.095,0.293c-0.363,0-0.688-0.079-0.977-0.237
	c-0.288-0.157-0.532-0.377-0.731-0.656c-0.2-0.279-0.351-0.607-0.453-0.984c-0.102-0.377-0.153-0.784-0.153-1.221
	c0-0.456,0.052-0.872,0.153-1.248C79.342,108.339,79.492,108.013,79.687,107.739z"/>
</svg>
